<svg width="400" height="400" viewBox="0 0 400 400" fill="none" xmlns="http://www.w3.org/2000/svg">
<g clip-path="url(#clip0_3813_27424)">
<path d="M60 109.999L236.667 13.332V76.6654L60 176.665L180 243.332V306.665L60 246.665V176.665V109.999Z" fill="#E97128"/>
<path d="M60 176.665V246.665L180 306.665V243.332L60 176.665ZM60 176.665V109.999L236.667 13.332V76.6654L60 176.665Z" stroke="#E97128" stroke-width="6.66667"/>
<path d="M140 213.335L210 96.668L70 176.668L140 213.335Z" fill="#008EC7" stroke="#008EC7" stroke-width="6.66667"/>
<path d="M330.493 231.859L185.215 311.442L258.137 193.299L330.493 231.859Z" fill="#008EC7" stroke="#008EC7" stroke-width="6.66667"/>
<path d="M216.667 93.332L336.667 153.332V229.999V236.665V299.999L163.334 383.332V326.665L336.667 236.665V229.999L216.667 169.999V93.332Z" fill="#0C3E66"/>
<path d="M336.667 229.999V153.332L216.667 93.332V169.999L336.667 229.999ZM336.667 229.999V236.665M336.667 236.665V299.999L163.334 383.332V326.665L336.667 236.665Z" stroke="#0C3E66" stroke-width="6.66667"/>
</g>
<defs>
<clipPath id="clip0_3813_27424">
<rect width="400" height="400" fill="white"/>
</clipPath>
</defs>
</svg>
