<svg width="30" height="30" viewBox="0 0 30 30" fill="none" xmlns="http://www.w3.org/2000/svg">
<path d="M15.3264 5.93361C15.2392 5.85016 15.1231 5.80359 15.0024 5.80359C14.8816 5.80359 14.7656 5.85016 14.6783 5.93361L3.89123 16.2385C3.84542 16.2823 3.80898 16.335 3.7841 16.3933C3.75922 16.4516 3.74644 16.5144 3.74651 16.5778L3.74475 26.2492C3.74475 26.7465 3.94229 27.2234 4.29393 27.5751C4.64556 27.9267 5.12247 28.1242 5.61975 28.1242H11.2506C11.4993 28.1242 11.7377 28.0255 11.9135 27.8496C12.0893 27.6738 12.1881 27.4354 12.1881 27.1867V19.218C12.1881 19.0937 12.2375 18.9744 12.3254 18.8865C12.4133 18.7986 12.5325 18.7492 12.6569 18.7492H17.3444C17.4687 18.7492 17.5879 18.7986 17.6758 18.8865C17.7637 18.9744 17.8131 19.0937 17.8131 19.218V27.1867C17.8131 27.4354 17.9119 27.6738 18.0877 27.8496C18.2635 28.0255 18.502 28.1242 18.7506 28.1242H24.3791C24.8764 28.1242 25.3533 27.9267 25.705 27.5751C26.0566 27.2234 26.2541 26.7465 26.2541 26.2492V16.5778C26.2542 16.5144 26.2414 16.4516 26.2165 16.3933C26.1917 16.335 26.1552 16.2823 26.1094 16.2385L15.3264 5.93361Z" fill="#0C66E4"/>
<path d="M28.7633 14.3057L24.3805 10.1127V3.75C24.3805 3.50136 24.2817 3.2629 24.1059 3.08709C23.9301 2.91127 23.6916 2.8125 23.443 2.8125H20.6305C20.3819 2.8125 20.1434 2.91127 19.9676 3.08709C19.7918 3.2629 19.693 3.50136 19.693 3.75V5.625L16.2992 2.38008C15.9817 2.05898 15.5094 1.875 14.9991 1.875C14.4905 1.875 14.0194 2.05898 13.7018 2.38066L1.23889 14.3045C0.874436 14.6561 0.828733 15.2344 1.16037 15.6152C1.24365 15.7114 1.34562 15.7896 1.46008 15.845C1.57454 15.9005 1.69908 15.9321 1.82614 15.9379C1.9532 15.9437 2.08011 15.9236 2.19915 15.8788C2.31819 15.834 2.42687 15.7655 2.51858 15.6773L14.6768 4.05938C14.764 3.97593 14.8801 3.92935 15.0008 3.92935C15.1215 3.92935 15.2376 3.97593 15.3248 4.05938L27.4842 15.6773C27.6633 15.8491 27.9032 15.9429 28.1514 15.938C28.3995 15.9332 28.6356 15.8302 28.8078 15.6516C29.1676 15.2789 29.1377 14.6637 28.7633 14.3057Z" fill="#0C66E4"/>
</svg>
