<svg width="241" height="200" viewBox="0 0 241 200" fill="none" xmlns="http://www.w3.org/2000/svg">
<path d="M78.5 175C75.1667 175 72.25 173.75 69.75 171.25C67.25 168.75 66 165.833 66 162.5V37.5C66 34.1667 67.25 31.25 69.75 28.75C72.25 26.25 75.1667 25 78.5 25H169.542C171.27 25 172.917 25.3472 174.483 26.0417C176.05 26.7361 177.389 27.6389 178.5 28.75L212.25 62.5C213.361 63.6112 214.264 64.95 214.958 66.5167C215.653 68.0833 216 69.7304 216 71.4583V162.5C216 165.833 214.75 168.75 212.25 171.25C209.75 173.75 206.833 175 203.5 175H78.5ZM167.875 37.5V66.875C167.875 68.6458 168.474 70.13 169.673 71.3271C170.87 72.5258 172.354 73.125 174.125 73.125H203.5L167.875 37.5ZM176.625 139.375C178.396 139.375 179.88 138.772 181.079 137.567C182.276 136.362 182.875 134.87 182.875 133.087C182.875 131.307 182.276 129.826 181.079 128.646C179.88 127.465 178.396 126.875 176.625 126.875H105.375C103.604 126.875 102.12 127.478 100.923 128.683C99.7242 129.887 99.125 131.38 99.125 133.162C99.125 134.943 99.7242 136.424 100.923 137.604C102.12 138.785 103.604 139.375 105.375 139.375H176.625ZM134.75 73.125C136.521 73.125 138.005 72.5221 139.204 71.3167C140.401 70.1125 141 68.6196 141 66.8375C141 65.0571 140.401 63.5763 139.204 62.3958C138.005 61.2154 136.521 60.625 134.75 60.625H105.375C103.604 60.625 102.12 61.2279 100.923 62.4333C99.7242 63.6375 99.125 65.1304 99.125 66.9125C99.125 68.6929 99.7242 70.1737 100.923 71.3542C102.12 72.5346 103.604 73.125 105.375 73.125H134.75ZM176.625 106.25C178.396 106.25 179.88 105.647 181.079 104.442C182.276 103.237 182.875 101.745 182.875 99.9625C182.875 98.1821 182.276 96.7012 181.079 95.5208C179.88 94.3404 178.396 93.75 176.625 93.75H105.375C103.604 93.75 102.12 94.3529 100.923 95.5583C99.7242 96.7625 99.125 98.2554 99.125 100.037C99.125 101.818 99.7242 103.299 100.923 104.479C102.12 105.66 103.604 106.25 105.375 106.25H176.625Z" fill="#A7AEB4"/>
<rect x="195" y="142" width="40" height="40" rx="20" fill="white"/>
<path d="M215 145.75C206.04 145.75 198.75 153.04 198.75 162C198.75 170.96 206.04 178.25 215 178.25C223.96 178.25 231.25 170.96 231.25 162C231.25 153.04 223.96 145.75 215 145.75ZM220.884 166.116C221.005 166.231 221.101 166.369 221.168 166.522C221.235 166.675 221.27 166.84 221.273 167.007C221.275 167.173 221.243 167.339 221.181 167.494C221.118 167.648 221.024 167.789 220.907 167.907C220.789 168.024 220.648 168.118 220.494 168.181C220.339 168.243 220.173 168.275 220.007 168.273C219.84 168.27 219.675 168.235 219.522 168.168C219.369 168.101 219.231 168.005 219.116 167.884L215 163.768L210.884 167.884C210.647 168.108 210.333 168.231 210.007 168.227C209.681 168.223 209.369 168.092 209.139 167.861C208.908 167.631 208.777 167.319 208.773 166.993C208.769 166.667 208.892 166.353 209.116 166.116L213.232 162L209.116 157.884C208.892 157.647 208.769 157.333 208.773 157.007C208.777 156.681 208.908 156.369 209.139 156.139C209.369 155.908 209.681 155.777 210.007 155.773C210.333 155.769 210.647 155.892 210.884 156.116L215 160.232L219.116 156.116C219.353 155.892 219.667 155.769 219.993 155.773C220.319 155.777 220.631 155.908 220.861 156.139C221.092 156.369 221.223 156.681 221.227 157.007C221.231 157.333 221.108 157.647 220.884 157.884L216.768 162L220.884 166.116Z" fill="#B42318"/>
<path d="M16.2041 170.474L43.7695 142.908C37.133 134.073 33.5504 123.319 33.5625 112.27C33.5625 84.0449 56.5254 61.082 84.75 61.082C112.975 61.082 135.938 84.0449 135.938 112.27C135.938 140.494 112.975 163.457 84.75 163.457C73.7002 163.469 62.9463 159.887 54.1113 153.25L26.5459 180.815C25.1505 182.063 23.3306 182.729 21.4598 182.676C19.5889 182.624 17.8091 181.857 16.4857 180.534C15.1622 179.21 14.3957 177.431 14.3433 175.56C14.291 173.689 14.9568 171.869 16.2041 170.474ZM121.313 112.27C121.313 105.038 119.168 97.9692 115.151 91.9565C111.133 85.9438 105.423 81.2575 98.7419 78.4902C92.0609 75.7229 84.7094 74.9988 77.617 76.4096C70.5246 77.8203 64.0098 81.3026 58.8964 86.4159C53.7831 91.5293 50.3008 98.0441 48.89 105.137C47.4793 112.229 48.2033 119.58 50.9707 126.261C53.738 132.942 58.4243 138.653 64.437 142.67C70.4496 146.688 77.5186 148.832 84.75 148.832C94.4434 148.82 103.736 144.965 110.591 138.11C117.445 131.256 121.301 121.963 121.313 112.27Z" fill="#535D6F"/>
</svg>
